# xmcd
#
# Track frame offsets:
#	150
#	11933
#	29428
#	43588
#	56435
#	98885
#	113620
#	126225
#	141438
#	166658
#	180925
#	198733
#	216683
#
# Disc length: 3063 seconds
#
# Revision: 1
# Processed by: cddbd v1.5.2PL0 Copyright (c) Steve Scherf et al.
# Submitted via: audiograbber 1.83.01
#
DISCID=bc0bf50d
DTITLE=Various Artist - The first, aber nicht die letzte
DYEAR=1993
DGENRE=Blues
TTITLE0=Johnny Winter - Sugaree
TTITLE1=Wo bist du - Lonesome Road
TTITLE2=Dr. Feelgood - You don¥t love me
TTITLE3=Lonesome Road - Red pussy
TTITLE4=Lonesome Road - Little schoolgirl
TTITLE5=Lonesome Road - Theophil
TTITLE6=Lonesome Road - Bluesman
TTITLE7=Lonesome Road - Scheiﬂegal
TTITLE8=Lonesome Road - Ich liebe den Blues
TTITLE9=Lonesome Road - Luschy
TTITLE10=Muddy Waters - Can¥t be satisfied
TTITLE11=Lonesome Road - Tr‰umerblues
TTITLE12=Lonesome Road - Ab durch die Pampa - Toilettenblues
EXTD=
EXTT0=
EXTT1=
EXTT2=
EXTT3=
EXTT4=
EXTT5=
EXTT6=
EXTT7=
EXTT8=
EXTT9=
EXTT10=
EXTT11=
EXTT12=
PLAYORDER=
